<svg xmlns="http://www.w3.org/2000/svg" viewBox="0 0 1200 520" role="img" aria-label="portfolio hero object">
  <defs>
    <linearGradient id="metal" x1="0" x2="1" y1="0" y2="1">
      <stop offset="0" stop-color="#747474"/>
      <stop offset="0.38" stop-color="#242424"/>
      <stop offset="0.7" stop-color="#4c4c4c"/>
      <stop offset="1" stop-color="#151515"/>
    </linearGradient>
    <linearGradient id="dark" x1="0" x2="1" y1="0" y2="1">
      <stop offset="0" stop-color="#303030"/>
      <stop offset="1" stop-color="#070707"/>
    </linearGradient>
    <filter id="shadow" x="-20%" y="-20%" width="140%" height="140%">
      <feDropShadow dx="16" dy="26" stdDeviation="20" flood-color="#000000" flood-opacity="0.55"/>
    </filter>
  </defs>

  <g filter="url(#shadow)" transform="rotate(-14 600 260)">
    <path d="M165 338 C250 390 465 408 650 354" fill="none" stroke="url(#metal)" stroke-width="22" stroke-linecap="round"/>
    <path d="M165 171 L665 171" fill="none" stroke="url(#metal)" stroke-width="24" stroke-linecap="round"/>
    <path d="M704 110 L1100 110 Q1162 110 1162 172 L1162 326 Q1162 388 1100 388 L760 388" fill="none" stroke="url(#metal)" stroke-width="34" stroke-linejoin="round" stroke-linecap="round"/>

    <rect x="86" y="134" width="116" height="226" rx="26" fill="url(#metal)"/>
    <rect x="113" y="182" width="70" height="132" rx="14" fill="#050505"/>
    <circle cx="110" cy="172" r="10" fill="#050505"/>

    <rect x="252" y="140" width="174" height="54" rx="13" fill="#4a4a4a"/>
    <rect x="618" y="76" width="232" height="134" rx="22" fill="url(#dark)"/>
    <rect x="658" y="60" width="96" height="34" rx="10" fill="#252525"/>
    <rect x="630" y="190" width="224" height="240" rx="26" fill="url(#dark)"/>
    <path d="M694 234 L760 234 Q800 234 812 276 L842 376 Q852 410 816 410 L736 410 Q708 410 698 380 L660 270 Q648 234 694 234 Z" fill="#0a0a0a"/>
    <path d="M719 260 L761 260 Q782 260 789 283 L816 370 Q821 388 802 388 L755 388 Q737 388 731 370 L698 282 Q690 260 719 260 Z" fill="#1b1b1b"/>
    <path d="M165 338 L122 374 Q101 392 72 382 L51 375 L94 318 Z" fill="url(#dark)"/>
    <rect x="131" y="323" width="30" height="13" rx="7" fill="#6c38ff"/>
    <rect x="682" y="49" width="20" height="40" rx="8" fill="#727272"/>
    <rect x="705" y="50" width="78" height="15" rx="7" fill="#444444"/>

    <path d="M730 119 L842 119" stroke="#5f5f5f" stroke-width="5" stroke-linecap="round" opacity="0.75"/>
    <path d="M871 123 L1112 123 Q1146 123 1146 158" stroke="#8a8a8a" stroke-width="5" stroke-linecap="round" fill="none" opacity="0.65"/>
    <path d="M622 405 L816 405" stroke="#404040" stroke-width="5" stroke-linecap="round" opacity="0.75"/>
  </g>
</svg>
